<svg width="36" height="36" viewBox="0 0 36 36" fill="none" xmlns="http://www.w3.org/2000/svg">
<path d="M18 3.59998C10.0476 3.59998 3.59998 10.0476 3.59998 18C3.59998 25.9524 10.0476 32.4 18 32.4C25.9524 32.4 32.4 25.9524 32.4 18C32.4 10.0476 25.9524 3.59998 18 3.59998ZM23.0172 13.2H20.9424C19.6512 13.2 19.2 13.8816 19.2 15.2616V16.8H22.9848L22.4712 20.4H19.2V29.94C18.8052 29.9784 18.4056 30 18 30C17.178 30 16.3752 29.916 15.6 29.7588V20.4H12V16.8H15.6V14.8668C15.6 11.2068 17.3832 9.59998 20.4252 9.59998C21.882 9.59998 22.6524 9.70798 23.0172 9.75718V13.2Z" fill="#AF7D4D"/>
</svg>
