<svg width="36" height="36" viewBox="0 0 36 36" fill="none" xmlns="http://www.w3.org/2000/svg">
<path d="M18 2.40002C9.39842 2.40002 2.40002 9.39842 2.40002 18C2.40002 26.6016 9.39842 33.6 18 33.6C26.6016 33.6 33.6 26.6016 33.6 18C33.6 9.39842 26.6016 2.40002 18 2.40002ZM13.9992 7.20002H21.9985C25.7485 7.20002 28.8 10.2504 28.8 13.9992V21.9985C28.8 25.7485 25.7496 28.8 22.0008 28.8H14.0016C10.2516 28.8 7.20002 25.7496 7.20002 22.0008V14.0016C7.20002 10.2516 10.2504 7.20002 13.9992 7.20002ZM13.9992 9.60002C11.574 9.60002 9.60002 11.5752 9.60002 14.0016V22.0008C9.60002 24.426 11.5752 26.4 14.0016 26.4H22.0008C24.426 26.4 26.4 24.4249 26.4 21.9985V13.9992C26.4 11.574 24.4249 9.60002 21.9985 9.60002H13.9992ZM23.6016 11.5992C24.0432 11.5992 24.4008 11.9569 24.4008 12.3985C24.4008 12.8401 24.0432 13.2 23.6016 13.2C23.16 13.2 22.8 12.8401 22.8 12.3985C22.8 11.9569 23.16 11.5992 23.6016 11.5992ZM18 12C21.3084 12 24 14.6916 24 18C24 21.3084 21.3084 24 18 24C14.6916 24 12 21.3084 12 18C12 14.6916 14.6916 12 18 12ZM18 14.4C17.0452 14.4 16.1296 14.7793 15.4544 15.4544C14.7793 16.1296 14.4 17.0452 14.4 18C14.4 18.9548 14.7793 19.8705 15.4544 20.5456C16.1296 21.2207 17.0452 21.6 18 21.6C18.9548 21.6 19.8705 21.2207 20.5456 20.5456C21.2207 19.8705 21.6 18.9548 21.6 18C21.6 17.0452 21.2207 16.1296 20.5456 15.4544C19.8705 14.7793 18.9548 14.4 18 14.4Z" fill="#AF7D4D"/>
</svg>
