<svg width="36" height="36" viewBox="0 0 36 36" fill="none" xmlns="http://www.w3.org/2000/svg">
<path d="M29.4545 4H6.54545C5.13909 4 4 5.13909 4 6.54545V29.4545C4 30.8609 5.13909 32 6.54545 32H29.4545C30.8609 32 32 30.8609 32 29.4545V6.54545C32 5.13909 30.8596 4 29.4545 4ZM27.786 16.0578C27.6205 16.0731 27.4538 16.0833 27.2858 16.0833C25.3831 16.0833 23.7107 15.1058 22.7371 13.6256C22.7371 17.5062 22.7371 21.9225 22.7371 21.9964C22.7371 25.4136 19.9664 28.1831 16.5504 28.1831C13.1344 28.1818 10.3636 25.4111 10.3636 21.9951C10.3636 18.5778 13.1344 15.8084 16.5504 15.8084C16.6802 15.8084 16.8062 15.8198 16.9322 15.8275V18.8769C16.8049 18.8616 16.6815 18.8387 16.5504 18.8387C14.8067 18.8387 13.3927 20.2527 13.3927 21.9964C13.3927 23.74 14.8055 25.154 16.5504 25.154C18.2953 25.154 19.8353 23.7795 19.8353 22.0358C19.8353 21.9658 19.8658 7.81945 19.8658 7.81945H22.7791C23.0527 10.4247 25.1565 12.4815 27.786 12.6698V16.0578Z" fill="#AF7D4D"/>
</svg>
