<svg width="36" height="36" viewBox="0 0 36 36" fill="none" xmlns="http://www.w3.org/2000/svg">
<path d="M18 3.59998C10.0476 3.59998 3.59998 10.0476 3.59998 18C3.59998 25.9524 10.0476 32.4 18 32.4C25.9524 32.4 32.4 25.9524 32.4 18C32.4 10.0476 25.9524 3.59998 18 3.59998ZM25.7568 15.042C25.764 15.2016 25.7676 15.36 25.7676 15.5184C25.7676 20.4 22.0536 26.0256 15.2604 26.0256C13.1736 26.0256 11.2332 25.4148 9.59998 24.366C9.88918 24.4008 10.1832 24.4164 10.482 24.4164C12.2136 24.4164 13.8048 23.8272 15.0672 22.8348C13.4508 22.8048 12.0864 21.7368 11.6172 20.2704C11.8428 20.3136 12.0744 20.3364 12.312 20.3364C12.6492 20.3364 12.9768 20.2908 13.2852 20.2068C11.5956 19.8684 10.3224 18.3756 10.3224 16.5864C10.3224 16.5708 10.3224 16.5552 10.3224 16.5396C10.8204 16.8168 11.3892 16.9824 11.9952 17.0016C11.0052 16.3404 10.3524 15.2088 10.3524 13.9284C10.3524 13.2504 10.5336 12.6156 10.8516 12.072C12.6732 14.3064 15.3948 15.7776 18.4632 15.9312C18.4008 15.6612 18.3684 15.3792 18.3684 15.09C18.3684 13.0512 20.022 11.3964 22.0608 11.3964C23.1228 11.3964 24.0828 11.8452 24.756 12.5628C25.5972 12.396 26.388 12.09 27.102 11.6664C26.826 12.5292 26.2404 13.2516 25.4772 13.71C26.2236 13.6212 26.9352 13.4232 27.5988 13.1292C27.1056 13.8708 26.4804 14.52 25.7568 15.042Z" fill="#AF7D4D"/>
</svg>
