<svg width="20" height="21" viewBox="0 0 20 21" fill="none" xmlns="http://www.w3.org/2000/svg">
<path d="M0 0.9C0 0.402948 0.383785 0 0.857199 0H1.49525C2.58157 0 3.23201 0.766788 3.60395 1.47959C3.85186 1.95473 4.03121 2.50582 4.1715 3.00474C4.20949 3.00161 4.24798 3 4.28691 3H18.5705C19.5193 3 20.2045 3.9533 19.9444 4.91136L17.8553 12.6023C17.4704 14.0198 16.2367 14.9974 14.8329 14.9974H8.03455C6.61904 14.9974 5.37818 14.0039 5.00356 12.5707L4.13437 9.2454L2.69588 4.14694L2.69355 4.13801C2.51559 3.45661 2.34858 2.82006 2.1004 2.34444C1.85939 1.88256 1.66727 1.8 1.49525 1.8H0.857199C0.383785 1.8 0 1.39705 0 0.9ZM5.7979 8.80836L6.65682 12.0943C6.82711 12.7458 7.39114 13.1974 8.03455 13.1974H14.8329C15.471 13.1974 16.0317 12.753 16.2068 12.1087L18.1918 4.8H4.66944L5.78216 8.74416C5.7882 8.76552 5.79343 8.78688 5.7979 8.80836ZM9.71492 18.6C9.71492 19.9255 8.69154 21 7.42906 21C6.16661 21 5.14319 19.9255 5.14319 18.6C5.14319 17.2745 6.16661 16.2 7.42906 16.2C8.69154 16.2 9.71492 17.2745 9.71492 18.6ZM8.00052 18.6C8.00052 18.2687 7.74467 18 7.42906 18C7.11345 18 6.85759 18.2687 6.85759 18.6C6.85759 18.9313 7.11345 19.2 7.42906 19.2C7.74467 19.2 8.00052 18.9313 8.00052 18.6ZM17.7154 18.6C17.7154 19.9255 16.6921 21 15.4296 21C14.1671 21 13.1437 19.9255 13.1437 18.6C13.1437 17.2745 14.1671 16.2 15.4296 16.2C16.6921 16.2 17.7154 17.2745 17.7154 18.6ZM16.001 18.6C16.001 18.2687 15.7451 18 15.4296 18C15.114 18 14.8581 18.2687 14.8581 18.6C14.8581 18.9313 15.114 19.2 15.4296 19.2C15.7451 19.2 16.001 18.9313 16.001 18.6Z" fill="#B7B7B7"/>
</svg>
