<svg width="19" height="20" viewBox="0 0 19 20" fill="none" xmlns="http://www.w3.org/2000/svg">
<path d="M7.96892 0.557768C8.85337 -0.185924 10.1466 -0.185924 11.0311 0.557779L18.1561 6.54885C18.6911 6.99883 19 7.66126 19 8.35925V18.1581C19 19.1753 18.173 20 17.1528 20H13.4583C12.4381 20 11.6111 19.1753 11.6111 18.1581V12.888C11.6111 12.7427 11.493 12.6249 11.3472 12.6249H7.65278C7.50701 12.6249 7.38888 12.7427 7.38888 12.888V18.1581C7.38888 19.1753 6.56186 20 5.54167 20H1.84722C0.827028 20 0 19.1753 0 18.1581V8.35925C0 7.66126 0.308803 6.99883 0.843938 6.54885L7.96892 0.557768ZM10.0104 1.76471C9.71554 1.51681 9.28446 1.51681 8.98964 1.76471L1.86465 7.75579C1.68627 7.90578 1.58333 8.12659 1.58333 8.35925V18.1581C1.58333 18.3034 1.70148 18.4212 1.84722 18.4212H5.54167C5.68741 18.4212 5.80555 18.3034 5.80555 18.1581V12.888C5.80555 11.8707 6.63258 11.0461 7.65278 11.0461H11.3472C12.3674 11.0461 13.1944 11.8707 13.1944 12.888V18.1581C13.1944 18.3034 13.3126 18.4212 13.4583 18.4212H17.1528C17.2985 18.4212 17.4167 18.3034 17.4167 18.1581V8.35925C17.4167 8.12659 17.3137 7.90578 17.1354 7.75579L10.0104 1.76471Z" fill="#B7B7B7"/>
</svg>
