<svg width="22" height="21" viewBox="0 0 22 21" fill="none" xmlns="http://www.w3.org/2000/svg">
<path d="M1.1 9.94737C1.1 4.45359 5.53238 0 11 0C16.4677 0 20.9 4.45359 20.9 9.94737V16.8553C20.9 17.3131 20.5306 17.6842 20.075 17.6842H1.925C1.46937 17.6842 1.1 17.3131 1.1 16.8553V9.94737ZM11 1.65789C6.44365 1.65789 2.75 5.36921 2.75 9.94737V16.0263H7.47311C6.58776 15.1756 6.05 14 6.05 12.6956C6.05 11.3732 6.44603 10.3386 6.84559 9.63358C7.04498 9.28178 7.24598 9.01044 7.40121 8.82318C7.47895 8.72937 7.54568 8.65609 7.59565 8.60377C7.62066 8.57759 7.64151 8.5566 7.65753 8.54085L7.67785 8.52116L7.68513 8.51425L7.68802 8.51153L7.68929 8.51036L7.69041 8.50931C8.00243 8.21991 8.48213 8.21575 8.79907 8.49973C8.81771 8.51638 8.83575 8.53241 8.85335 8.54782L8.85874 8.49052C8.86402 8.4344 8.86985 8.37388 8.87601 8.3103C8.93244 7.73298 9.02528 6.90899 9.3962 6.16783C9.79275 5.37533 10.4897 4.70888 11.6395 4.44228C11.8845 4.38547 12.1418 4.44402 12.3386 4.60129C12.5354 4.75856 12.65 4.99738 12.65 5.25C12.65 6.72754 13.2978 7.56855 14.1108 8.55659L14.1938 8.65727C14.9895 9.62187 15.95 10.7863 15.95 12.6956C15.95 13.9889 15.4088 15.1701 14.5167 16.0263H19.25V9.94737C19.25 5.36921 15.5563 1.65789 11 1.65789ZM8.27941 10.454C7.99147 10.9621 7.7 11.7162 7.7 12.6956C7.7 14.324 9.05025 15.75 11.0019 15.75C12.9482 15.75 14.3 14.2983 14.3 12.6956C14.3 11.3883 13.6811 10.6363 12.8437 9.61855L12.8392 9.61303C12.1871 8.82061 11.4347 7.89362 11.1342 6.52631C11.0243 6.64358 10.9396 6.77414 10.8703 6.91259C10.6525 7.34788 10.5753 7.88726 10.5182 8.47216C10.5136 8.51933 10.509 8.56812 10.5042 8.61777C10.4828 8.84597 10.4595 9.09399 10.4238 9.303C10.3875 9.51609 10.3083 9.92305 10.021 10.2183C9.84687 10.3971 9.61444 10.5182 9.3445 10.5449C9.09733 10.5692 8.87711 10.5088 8.7076 10.4384C8.60256 10.3948 8.49631 10.3384 8.38889 10.2715C8.35293 10.3282 8.31622 10.389 8.27941 10.454ZM0 20.1711C0 19.7133 0.369369 19.3421 0.825 19.3421H21.175C21.6306 19.3421 22 19.7133 22 20.1711C22 20.6289 21.6306 21 21.175 21H0.825C0.369369 21 0 20.6289 0 20.1711Z" fill="#B7B7B7"/>
</svg>
