<svg width="36" height="36" viewBox="0 0 36 36" fill="none" xmlns="http://www.w3.org/2000/svg">
<path d="M18 4.80005C12.9768 4.80005 6.45706 6.05864 6.45706 6.05864L6.44065 6.07739C4.15282 6.44329 2.40002 8.4092 2.40002 10.8V18V18.0024V25.2001V25.2024C2.40226 26.3442 2.81147 27.4479 3.55418 28.3152C4.2969 29.1825 5.32446 29.7566 6.45237 29.9344L6.45706 29.9415C6.45706 29.9415 12.9768 31.2024 18 31.2024C23.0232 31.2024 29.543 29.9415 29.543 29.9415L29.5453 29.9391C30.6745 29.7616 31.7032 29.1871 32.4465 28.3188C33.1898 27.4504 33.5988 26.3454 33.6 25.2024V25.2001V18.0024V18V10.8C33.5983 9.6578 33.1894 8.55359 32.4466 7.68582C31.7039 6.81804 30.676 6.24359 29.5477 6.06567L29.543 6.05864C29.543 6.05864 23.0232 4.80005 18 4.80005ZM14.4 12.4782L24 18L14.4 23.5219V12.4782Z" fill="#AF7D4D"/>
</svg>
