<svg width="105" height="33" viewBox="0 0 105 33" fill="none" xmlns="http://www.w3.org/2000/svg">
<path d="M11.9992 4.5C9.18779 4.5 6.78698 6.25777 5.8358 8.73424C5.30982 8.58232 4.79945 8.46733 4.32254 8.3801C3.35484 8.20309 2.49781 8.13541 1.88124 8.11183C1.57235 8.10002 1.32217 8.09922 1.14668 8.1015C1.05889 8.10264 0.989664 8.10456 0.94098 8.10626L0.88356 8.10854C0.421704 8.13121 0.035172 8.49 0.00930004 8.95884L0.00806408 8.98404L0.00578413 9.04146C0.00408013 9.09014 0.00215995 9.15937 0.00101995 9.24716C-0.00126005 9.42265 -0.000456034 9.67283 0.011352 9.98172C0.034932 10.5983 0.102612 11.4553 0.279612 12.423C0.440964 13.3052 0.697272 14.3017 1.10664 15.3H0.9C0.402948 15.3 0 15.703 0 16.2V16.5C0 23.1274 5.37258 28.5 12 28.5C18.6274 28.5 24 23.1274 24 16.5V16.2C24 15.703 23.597 15.3 23.1 15.3H22.7963C22.7976 15.2502 22.7982 15.2002 22.7982 15.15C22.7982 12.42 20.9281 10.1268 18.3992 9.48136C17.6774 6.61883 15.0858 4.5 11.9992 4.5ZM7.52896 9.3479C8.22892 7.56348 9.96648 6.3 11.9992 6.3C14.0213 6.3 15.7513 7.55041 16.4584 9.32022C14.3112 9.49822 12.4932 10.8357 11.6321 12.705C11.3144 12.2365 10.9499 11.7862 10.5313 11.3677C9.6324 10.4688 8.58676 9.81863 7.52896 9.3479ZM20.9982 15.15C20.9982 15.2002 20.9972 15.2502 20.9954 15.3H12.9206L12.8992 15.2398C12.8986 15.2099 12.8982 15.18 12.8982 15.15C12.8982 12.9132 14.7114 11.1 16.9482 11.1C19.185 11.1 20.9982 12.9132 20.9982 15.15ZM9.25858 12.6405C10.0295 13.4114 10.5887 14.3392 10.9924 15.3H8.47218L6.33442 13.1634C5.98284 12.8121 5.413 12.8122 5.06162 13.1638C4.71025 13.5153 4.71041 14.0852 5.06198 14.4366L5.92589 15.3H3.08202C2.55571 14.2492 2.23784 13.1248 2.05024 12.0992C1.89194 11.2337 1.83113 10.4644 1.81003 9.91294L1.80994 9.91043L1.81246 9.91052C2.36393 9.93161 3.13324 9.99242 3.99868 10.1507C5.75004 10.4711 7.78932 11.1712 9.25858 12.6405ZM3.34506 21.9H20.6549C18.8526 24.7826 15.6503 26.7 12 26.7C8.34977 26.7 5.14738 24.7826 3.34506 21.9ZM1.81735 17.1H22.1826C22.1218 18.1506 21.9018 19.1585 21.5465 20.1H2.45346C2.09824 19.1585 1.8783 18.1506 1.81735 17.1ZM0.861564 8.10961L0.866844 8.10935L0.88356 8.10854L0.861564 8.10961Z" fill="#AF7D4D"/>
<path d="M47.9609 8.19531C47.9609 8.41406 47.9141 8.58594 47.8203 8.71094C47.7266 8.82812 47.6133 8.90625 47.4805 8.94531C47.0508 9.03125 46.6367 9.10156 46.2383 9.15625C45.8398 9.21094 45.4414 9.25391 45.043 9.28516C45.0039 9.63672 44.9453 10.2188 44.8672 11.0312C44.7969 11.8359 44.7266 12.8281 44.6562 14.0078C44.5859 15.1797 44.5234 16.5117 44.4688 18.0039C44.4141 19.4961 44.3867 21.1016 44.3867 22.8203V23.9688C44.7773 23.9688 45.1641 23.9805 45.5469 24.0039C45.9297 24.0195 46.3281 24.0469 46.7422 24.0859C46.9219 24.125 47.0586 24.207 47.1523 24.332C47.2461 24.4492 47.293 24.5938 47.293 24.7656C47.2773 24.9297 47.207 25.0625 47.082 25.1641C46.9648 25.2656 46.8281 25.3164 46.6719 25.3164H46.625C46.1797 25.2773 45.7422 25.2461 45.3125 25.2227C44.8828 25.1992 44.457 25.1875 44.0352 25.1875C43.6133 25.1875 43.1953 25.1992 42.7812 25.2227C42.3672 25.2461 41.9609 25.2773 41.5625 25.3164H41.4805C41.3008 25.3164 41.1523 25.2539 41.0352 25.1289C40.918 25.0039 40.8594 24.8633 40.8594 24.707C40.8594 24.5508 40.9102 24.4141 41.0117 24.2969C41.1211 24.1797 41.2539 24.1094 41.4102 24.0859C41.707 24.0625 42 24.043 42.2891 24.0273C42.5781 24.0039 42.8711 23.9844 43.168 23.9688V22.8203C43.168 21.1094 43.1914 19.5078 43.2383 18.0156C42.5977 18.0781 41.957 18.1211 41.3164 18.1445C40.6758 18.168 40.0352 18.1797 39.3945 18.1797C38.7461 18.1797 38.1094 18.168 37.4844 18.1445C36.8672 18.1211 36.2578 18.0781 35.6562 18.0156L35.5156 23.9453C35.8125 23.9688 36.1133 23.9922 36.418 24.0156C36.7305 24.0391 37.043 24.0625 37.3555 24.0859C37.5117 24.1094 37.6406 24.1797 37.7422 24.2969C37.8516 24.4141 37.9062 24.5508 37.9062 24.707C37.9062 24.8867 37.8398 25.0312 37.707 25.1406C37.5742 25.2578 37.4336 25.3164 37.2852 25.3164H37.2383C36.6133 25.2539 35.9883 25.2031 35.3633 25.1641C34.7461 25.1328 34.125 25.1172 33.5 25.1172C32.8828 25.1172 32.2695 25.1328 31.6602 25.1641C31.0586 25.2031 30.4531 25.2539 29.8438 25.3164H29.7969C29.6172 25.3164 29.4688 25.2539 29.3516 25.1289C29.2344 25.0039 29.1758 24.8633 29.1758 24.707C29.1758 24.5508 29.2266 24.4141 29.3281 24.2969C29.4375 24.1797 29.5703 24.1094 29.7266 24.0859C30.0156 24.0625 30.3047 24.0391 30.5938 24.0156C30.8906 23.9922 31.1836 23.9688 31.4727 23.9453L31.7422 9.15625C31.0703 9.10938 30.3906 9.03906 29.7031 8.94531C29.5469 8.92188 29.418 8.85156 29.3164 8.73438C29.2227 8.61719 29.1758 8.48828 29.1758 8.34766C29.1758 8.14453 29.2461 7.98828 29.3867 7.87891C29.5273 7.76953 29.6641 7.71484 29.7969 7.71484H29.8672C30.6953 7.83984 31.5117 7.92969 32.3164 7.98438C33.1211 8.03125 33.9219 8.05469 34.7188 8.05469C35.2031 8.05469 35.6797 8.04688 36.1484 8.03125C36.6172 8.01562 37.0859 7.98438 37.5547 7.9375H37.6016C37.7578 7.9375 37.8945 7.99219 38.0117 8.10156C38.1367 8.20312 38.207 8.33203 38.2227 8.48828C38.2227 8.68359 38.1641 8.83984 38.0469 8.95703C37.9375 9.07422 37.8047 9.14062 37.6484 9.15625C37.3594 9.17969 37.0703 9.20312 36.7812 9.22656C36.4922 9.25 36.1953 9.26953 35.8906 9.28516L35.7031 16.7734C36.2812 16.8438 36.8828 16.8945 37.5078 16.9258C38.1328 16.9492 38.7617 16.9609 39.3945 16.9609C40.0508 16.9609 40.6992 16.9492 41.3398 16.9258C41.9883 16.9023 42.6367 16.8594 43.2852 16.7969C43.3164 15.875 43.3555 15.0195 43.4023 14.2305C43.457 13.4414 43.5078 12.7305 43.5547 12.0977C43.6094 11.457 43.6562 10.9062 43.6953 10.4453C43.7422 9.97656 43.7812 9.60547 43.8125 9.33203C43.5 9.31641 43.1914 9.29688 42.8867 9.27344C42.5898 9.25 42.293 9.21094 41.9961 9.15625C41.8477 9.13281 41.7227 9.06641 41.6211 8.95703C41.5273 8.83984 41.4805 8.70703 41.4805 8.55859C41.4805 8.36328 41.5469 8.21094 41.6797 8.10156C41.8203 7.99219 41.957 7.9375 42.0898 7.9375H42.1836C42.4961 8 42.8086 8.04297 43.1211 8.06641C43.4336 8.08984 43.7539 8.10156 44.082 8.10156C44.5742 8.10156 45.0781 8.07031 45.5938 8.00781C46.1172 7.94531 46.6602 7.84766 47.2227 7.71484H47.3633C47.5117 7.71484 47.6367 7.76172 47.7383 7.85547C47.8477 7.94141 47.9219 8.05469 47.9609 8.19531ZM56.8203 25.293C56.8047 25.293 56.7852 25.2891 56.7617 25.2812C56.7461 25.2734 56.7266 25.2695 56.7031 25.2695C56.0703 25.1445 55.4688 25.0547 54.8984 25C54.3281 24.9375 53.7617 24.9062 53.1992 24.9062C52.6289 24.9062 52.0625 24.9375 51.5 25C50.9375 25.0547 50.3438 25.1445 49.7188 25.2695C49.6953 25.2695 49.6758 25.2734 49.6602 25.2812C49.6445 25.2891 49.625 25.293 49.6016 25.293C49.4219 25.293 49.2734 25.2266 49.1562 25.0938C49.0469 24.9609 48.9922 24.8164 48.9922 24.6602C48.9922 24.5195 49.0352 24.3906 49.1211 24.2734C49.2148 24.1562 49.332 24.0859 49.4727 24.0625C49.7461 24 50.0195 23.9531 50.293 23.9219C50.5742 23.8828 50.8477 23.8438 51.1133 23.8047V14.8281C50.6211 14.8047 50.207 14.7734 49.8711 14.7344C49.5352 14.6953 49.3477 14.6758 49.3086 14.6758C49.1523 14.6523 49.0234 14.582 48.9219 14.4648C48.8281 14.3477 48.7812 14.2109 48.7812 14.0547C48.7812 13.8594 48.8516 13.7109 48.9922 13.6094C49.1328 13.5078 49.2695 13.457 49.4023 13.457H49.4727C49.4805 13.457 49.5703 13.4688 49.7422 13.4922C49.9141 13.5078 50.1367 13.5273 50.4102 13.5508C50.6914 13.5742 51.0078 13.5977 51.3594 13.6211C51.7109 13.6367 52.0742 13.6445 52.4492 13.6445C52.8242 13.6445 53.1914 13.6328 53.5508 13.6094C53.9102 13.5781 54.2383 13.5273 54.5352 13.457H54.6641C54.8438 13.457 54.9922 13.5195 55.1094 13.6445C55.2266 13.7617 55.2852 13.8984 55.2852 14.0547L55.2617 23.8047C55.5352 23.8438 55.8086 23.8828 56.082 23.9219C56.3633 23.9531 56.6484 24 56.9375 24.0625C57.0859 24.0859 57.207 24.1562 57.3008 24.2734C57.3945 24.3906 57.4414 24.5195 57.4414 24.6602C57.4414 24.8398 57.375 24.9883 57.2422 25.1055C57.1094 25.2305 56.9688 25.293 56.8203 25.293ZM55.1211 9.88281C55.1211 10.1719 55.0664 10.4453 54.957 10.7031C54.8477 10.9531 54.6953 11.1719 54.5 11.3594C54.3125 11.5469 54.0898 11.6953 53.832 11.8047C53.582 11.9141 53.3125 11.9688 53.0234 11.9688C52.7344 11.9688 52.4609 11.9141 52.2031 11.8047C51.9531 11.6953 51.7344 11.5469 51.5469 11.3594C51.3594 11.1719 51.2109 10.9531 51.1016 10.7031C50.9922 10.4453 50.9375 10.1719 50.9375 9.88281C50.9375 9.59375 50.9922 9.32422 51.1016 9.07422C51.2109 8.81641 51.3594 8.59375 51.5469 8.40625C51.7344 8.21875 51.9531 8.07031 52.2031 7.96094C52.4609 7.85156 52.7344 7.79688 53.0234 7.79688C53.3125 7.79688 53.582 7.85156 53.832 7.96094C54.0898 8.07031 54.3125 8.21875 54.5 8.40625C54.6953 8.59375 54.8477 8.81641 54.957 9.07422C55.0664 9.32422 55.1211 9.59375 55.1211 9.88281ZM73.7305 13.3867C73.7305 13.5273 73.6836 13.6562 73.5898 13.7734C73.5039 13.8906 73.3828 13.9609 73.2266 13.9844C72.9531 14.0469 72.6797 14.0977 72.4062 14.1367C72.1328 14.168 71.8633 14.2031 71.5977 14.2422L71.4102 23.9453C71.6836 23.9453 71.9609 23.9531 72.2422 23.9688C72.5312 23.9766 72.8125 24 73.0859 24.0391C73.2578 24.0547 73.3906 24.125 73.4844 24.25C73.5859 24.3672 73.6367 24.4961 73.6367 24.6367C73.6367 24.832 73.5703 24.9844 73.4375 25.0938C73.3125 25.2109 73.1797 25.2695 73.0391 25.2695H72.9688C72.6484 25.2305 72.332 25.2031 72.0195 25.1875C71.7148 25.1719 71.4141 25.1641 71.1172 25.1641C70.5781 25.1641 70.043 25.1914 69.5117 25.2461C68.9883 25.3008 68.4688 25.3867 67.9531 25.5039H67.8242C67.6602 25.5039 67.5156 25.4414 67.3906 25.3164C67.2656 25.1992 67.2031 25.0625 67.2031 24.9062V24.8828L67.2734 22.7383C66.7812 23.6367 66.207 24.3242 65.5508 24.8008C64.8945 25.2695 64.1641 25.5039 63.3594 25.5039C62.8516 25.5039 62.4023 25.4219 62.0117 25.2578C61.6289 25.0938 61.2891 24.875 60.9922 24.6016C60.7031 24.3203 60.457 24 60.2539 23.6406C60.0586 23.2734 59.8984 22.8906 59.7734 22.4922C59.6562 22.0859 59.5703 21.6758 59.5156 21.2617C59.4609 20.8477 59.4336 20.4531 59.4336 20.0781C59.4336 19.0547 59.5312 18.0508 59.7266 17.0664C59.9297 16.082 60.2305 15.1523 60.6289 14.2773L58.5195 14.2188C58.3477 14.2031 58.2031 14.1406 58.0859 14.0312C57.9766 13.9141 57.9219 13.7695 57.9219 13.5977C57.9219 13.4414 57.9805 13.3047 58.0977 13.1875C58.2148 13.0625 58.3633 13 58.543 13L61.6367 13.0703C61.8086 13.0938 61.9492 13.1641 62.0586 13.2812C62.1758 13.3906 62.2344 13.5273 62.2344 13.6914C62.2344 13.7539 62.2227 13.8125 62.1992 13.8672C62.1836 13.9141 62.1641 13.9609 62.1406 14.0078C61.9922 14.1562 61.8516 14.3789 61.7188 14.6758C61.5859 14.9727 61.4648 15.3125 61.3555 15.6953C61.2461 16.0703 61.1484 16.4727 61.0625 16.9023C60.9766 17.3242 60.9023 17.7383 60.8398 18.1445C60.7773 18.543 60.7305 18.9141 60.6992 19.2578C60.668 19.6016 60.6523 19.8828 60.6523 20.1016C60.6523 20.5859 60.6914 21.0781 60.7695 21.5781C60.8555 22.0703 61 22.5195 61.2031 22.9258C61.4062 23.3242 61.6797 23.6523 62.0234 23.9102C62.3672 24.1602 62.8047 24.2852 63.3359 24.2852C63.8125 24.2852 64.2656 24.1484 64.6953 23.875C65.125 23.5938 65.5117 23.1953 65.8555 22.6797C66.207 22.1641 66.5117 21.5352 66.7695 20.793C67.0352 20.0508 67.2461 19.2148 67.4023 18.2852L67.543 13.5742C67.543 13.4023 67.6094 13.2656 67.7422 13.1641C67.875 13.0547 68.0156 13 68.1641 13H68.2344C68.5 13.0391 68.7695 13.0664 69.043 13.082C69.3164 13.0898 69.6016 13.0938 69.8984 13.0938C70.375 13.0938 70.8711 13.0703 71.3867 13.0234C71.9102 12.9766 72.4531 12.8984 73.0156 12.7891C73.0312 12.7891 73.0469 12.7852 73.0625 12.7773C73.0781 12.7695 73.0938 12.7656 73.1094 12.7656C73.2891 12.7656 73.4375 12.832 73.5547 12.9648C73.6719 13.0898 73.7305 13.2305 73.7305 13.3867ZM88.1914 18.707C88.1836 18.168 88.1016 17.6367 87.9453 17.1133C87.7891 16.582 87.5586 16.1094 87.2539 15.6953C86.957 15.2812 86.5898 14.9453 86.1523 14.6875C85.7227 14.4297 85.2266 14.3008 84.6641 14.3008C84.25 14.3008 83.8594 14.3906 83.4922 14.5703C83.1328 14.75 82.8008 14.9883 82.4961 15.2852C82.1992 15.582 81.9336 15.9219 81.6992 16.3047C81.4648 16.6875 81.2656 17.0859 81.1016 17.5C80.9453 17.9141 80.8242 18.3281 80.7383 18.7422C80.6523 19.1562 80.6094 19.5391 80.6094 19.8906V22.2695C80.7031 22.6367 80.8672 22.9531 81.1016 23.2188C81.3359 23.4766 81.6094 23.6953 81.9219 23.875C82.2344 24.0469 82.5703 24.1758 82.9297 24.2617C83.2891 24.3398 83.6367 24.3789 83.9727 24.3789C84.4883 24.3789 84.9492 24.293 85.3555 24.1211C85.7695 23.9492 86.1328 23.7188 86.4453 23.4297C86.7578 23.1406 87.0234 22.8086 87.2422 22.4336C87.4609 22.0508 87.6406 21.6484 87.7812 21.2266C87.9219 20.8047 88.0234 20.3789 88.0859 19.9492C88.1562 19.5117 88.1914 19.0977 88.1914 18.707ZM89.4453 18.707C89.4453 19.2695 89.3906 19.832 89.2812 20.3945C89.1797 20.9492 89.0234 21.4844 88.8125 22C88.6094 22.5078 88.3555 22.9844 88.0508 23.4297C87.7461 23.8672 87.3906 24.25 86.9844 24.5781C86.5781 24.8984 86.1211 25.1523 85.6133 25.3398C85.1133 25.5273 84.5664 25.6211 83.9727 25.6211C83.3398 25.6211 82.7305 25.5195 82.1445 25.3164C81.5664 25.1211 81.0547 24.832 80.6094 24.4492V29.9688C80.7891 29.9844 80.9727 30 81.1602 30.0156C81.3477 30.0391 81.5312 30.0625 81.7109 30.0859C81.8672 30.1094 81.9922 30.1797 82.0859 30.2969C82.1875 30.4141 82.2383 30.543 82.2383 30.6836C82.2383 30.8867 82.168 31.043 82.0273 31.1523C81.8867 31.2617 81.75 31.3164 81.6172 31.3164H81.5469C81.0859 31.2539 80.6133 31.1992 80.1289 31.1523C79.6445 31.1133 79.1328 31.0938 78.5938 31.0938C78.1016 31.0938 77.5859 31.1133 77.0469 31.1523C76.5156 31.1992 75.9414 31.2852 75.3242 31.4102H75.2305C75.0508 31.4102 74.9023 31.3477 74.7852 31.2227C74.668 31.1055 74.6094 30.9688 74.6094 30.8125C74.6094 30.6641 74.6523 30.5312 74.7383 30.4141C74.832 30.3047 74.957 30.2344 75.1133 30.2031C75.582 30.1094 76.0234 30.0391 76.4375 29.9922V14.5586C76.0156 14.5352 75.668 14.5078 75.3945 14.4766C75.1211 14.4375 74.9727 14.418 74.9492 14.418C74.793 14.3945 74.6641 14.3242 74.5625 14.207C74.4609 14.0898 74.4102 13.9609 74.4102 13.8203C74.4102 13.6172 74.4805 13.4609 74.6211 13.3516C74.7695 13.2422 74.9102 13.1875 75.043 13.1875H75.1133C75.1211 13.1875 75.2031 13.1992 75.3594 13.2227C75.5156 13.2383 75.7188 13.2617 75.9688 13.293C76.2266 13.3164 76.5195 13.3398 76.8477 13.3633C77.1758 13.3789 77.5156 13.3867 77.8672 13.3867C78.2109 13.3867 78.5547 13.375 78.8984 13.3516C79.2422 13.3203 79.5625 13.2734 79.8594 13.2109C79.8906 13.1953 79.9336 13.1875 79.9883 13.1875C80.168 13.1875 80.3164 13.2539 80.4336 13.3867C80.5508 13.5195 80.6094 13.6641 80.6094 13.8203V15.7305C81.0781 14.9102 81.6562 14.2617 82.3438 13.7852C83.0391 13.3086 83.8125 13.0703 84.6641 13.0703C85.4297 13.0703 86.1055 13.2383 86.6914 13.5742C87.2773 13.9102 87.7695 14.3477 88.168 14.8867C88.5742 15.4258 88.8828 16.0312 89.0938 16.7031C89.3047 17.375 89.4219 18.043 89.4453 18.707ZM104.82 13.1875C104.82 13.3438 104.766 13.4805 104.656 13.5977C104.555 13.7148 104.426 13.7812 104.27 13.7969C104.121 13.8203 103.973 13.8398 103.824 13.8555C103.684 13.8633 103.535 13.875 103.379 13.8906C103.324 14.1094 103.246 14.418 103.145 14.8164C103.051 15.207 102.938 15.6562 102.805 16.1641C102.672 16.6719 102.527 17.2227 102.371 17.8164C102.223 18.4102 102.066 19.0156 101.902 19.6328C101.738 20.25 101.57 20.8633 101.398 21.4727C101.227 22.082 101.059 22.6602 100.895 23.207C100.738 23.7461 100.586 24.2383 100.438 24.6836C100.297 25.1211 100.168 25.4844 100.051 25.7734C99.7305 26.5391 99.3477 27.2852 98.9023 28.0117C98.4648 28.7461 97.957 29.3984 97.3789 29.9688C96.8086 30.5391 96.168 30.9961 95.457 31.3398C94.7461 31.6914 93.9648 31.8672 93.1133 31.8672C92.582 31.8672 92.0703 31.793 91.5781 31.6445C91.0859 31.5039 90.6523 31.2891 90.2773 31C89.9023 30.7109 89.6016 30.3555 89.375 29.9336C89.1484 29.5195 89.0352 29.0352 89.0352 28.4805C89.0352 28.1289 89.0859 27.7773 89.1875 27.4258C89.2812 27.082 89.4258 26.7734 89.6211 26.5C89.8086 26.2344 90.043 26.0156 90.3242 25.8438C90.6055 25.6797 90.9336 25.5977 91.3086 25.5977C91.5977 25.5977 91.8672 25.6523 92.1172 25.7617C92.375 25.8711 92.5977 26.0195 92.7852 26.207C92.9727 26.3945 93.1211 26.6133 93.2305 26.8633C93.3398 27.1211 93.3945 27.3945 93.3945 27.6836C93.3945 27.9727 93.3398 28.2422 93.2305 28.4922C93.1211 28.75 92.9727 28.9727 92.7852 29.1602C92.5977 29.3555 92.375 29.5078 92.1172 29.6172C91.8672 29.7266 91.5977 29.7812 91.3086 29.7812C91.1758 29.7812 91.0508 29.7695 90.9336 29.7461C90.8164 29.7227 90.7031 29.6914 90.5938 29.6523C90.7734 29.8789 90.9805 30.0586 91.2148 30.1914C91.4492 30.332 91.7031 30.4023 91.9766 30.4023C92.3203 30.4023 92.6484 30.2969 92.9609 30.0859C93.2734 29.8828 93.5664 29.6172 93.8398 29.2891C94.1211 28.9609 94.3789 28.5938 94.6133 28.1875C94.8477 27.7812 95.0586 27.375 95.2461 26.9688C95.4414 26.5625 95.6094 26.1797 95.75 25.8203C95.8906 25.4609 96.0039 25.1641 96.0898 24.9297C96.1523 24.7578 96.2109 24.5781 96.2656 24.3906C96.3281 24.1953 96.3945 23.9922 96.4648 23.7812C95.6055 22.6094 94.918 21.5156 94.4023 20.5C93.8867 19.4844 93.4844 18.5664 93.1953 17.7461C92.9141 16.9258 92.7227 16.2148 92.6211 15.6133C92.5273 15.0039 92.4727 14.5234 92.457 14.1719C92.1602 14.1719 91.8594 14.168 91.5547 14.1602C91.2578 14.1445 90.9609 14.1172 90.6641 14.0781C90.5078 14.0625 90.375 14 90.2656 13.8906C90.1641 13.7734 90.1133 13.6367 90.1133 13.4805C90.1133 13.3086 90.1758 13.1641 90.3008 13.0469C90.4336 12.9219 90.5781 12.8594 90.7344 12.8594H90.8047C91.0781 12.8984 91.3555 12.9258 91.6367 12.9414C91.9258 12.9492 92.2188 12.9531 92.5156 12.9531C92.9688 12.9531 93.4258 12.9375 93.8867 12.9062C94.3555 12.8672 94.832 12.8086 95.3164 12.7305C95.3477 12.7148 95.3789 12.707 95.4102 12.707C95.5898 12.707 95.7383 12.7734 95.8555 12.9062C95.9805 13.0391 96.043 13.1836 96.043 13.3398C96.043 13.4805 95.9922 13.6094 95.8906 13.7266C95.7969 13.8438 95.6719 13.9141 95.5156 13.9375C95.1953 13.9844 94.8828 14.0273 94.5781 14.0664C94.2812 14.0977 93.9844 14.125 93.6875 14.1484C93.6953 14.4297 93.7383 14.8242 93.8164 15.332C93.9023 15.8398 94.0586 16.4414 94.2852 17.1367C94.5195 17.832 94.8438 18.6133 95.2578 19.4805C95.6797 20.3477 96.2344 21.2852 96.9219 22.293C97.1406 21.543 97.3594 20.7578 97.5781 19.9375C97.8047 19.1094 98.0156 18.3125 98.2109 17.5469C98.4141 16.7812 98.5938 16.0781 98.75 15.4375C98.9141 14.7969 99.043 14.2812 99.1367 13.8906C98.9805 13.875 98.8164 13.8633 98.6445 13.8555C98.4805 13.8398 98.3164 13.8203 98.1523 13.7969C97.9961 13.7812 97.8633 13.7148 97.7539 13.5977C97.6523 13.4805 97.6016 13.3438 97.6016 13.1875C97.6016 13 97.668 12.8516 97.8008 12.7422C97.9336 12.625 98.0742 12.5664 98.2227 12.5664H98.293C98.7773 12.6289 99.2578 12.6719 99.7344 12.6953C100.219 12.7188 100.707 12.7305 101.199 12.7305C101.684 12.7305 102.168 12.7188 102.652 12.6953C103.145 12.6719 103.637 12.6289 104.129 12.5664H104.199C104.379 12.5664 104.527 12.6328 104.645 12.7656C104.762 12.8906 104.82 13.0312 104.82 13.1875Z" fill="#AF7D4D"/>
</svg>
