<svg width="23" height="18" viewBox="0 0 23 18" fill="none" xmlns="http://www.w3.org/2000/svg">
<path d="M11.0073 16.3125C5.77278 16.3125 1.51102 12.8625 1.51102 8.625C1.51102 4.3875 5.77278 0.9375 11.0073 0.9375C16.2419 0.9375 20.5037 4.3875 20.5037 8.625C20.5037 12.8625 16.2419 16.3125 11.0073 16.3125ZM11.0073 2.0625C6.53249 2.0625 2.90072 5.01 2.90072 8.625C2.90072 12.24 6.53249 15.1875 11.0073 15.1875C15.4822 15.1875 19.114 12.24 19.114 8.625C19.114 5.01 15.4822 2.0625 11.0073 2.0625Z" fill="#D9D9D9"/>
<path d="M20.7353 17.0625C20.5593 17.0625 20.3832 17.01 20.2443 16.8975L18.3913 15.3975C18.1226 15.18 18.1226 14.82 18.3913 14.6025C18.66 14.385 19.1047 14.385 19.3734 14.6025L21.2263 16.1025C21.495 16.32 21.495 16.68 21.2263 16.8975C21.0873 17.01 20.9113 17.0625 20.7353 17.0625Z" fill="#D9D9D9"/>
</svg>
